<!--?xml version="1.0" standalone="no"?-->              <svg id="sw-js-blob-svg" viewBox="0 0 100 100" xmlns="http://www.w3.org/2000/svg">                    <defs>                         <linearGradient id="sw-gradient" x1="0" x2="1" y1="1" y2="0">                            <stop id="stop1" stop-color="rgba(55, 68.427, 248, 1)" offset="0%"></stop>                            <stop id="stop2" stop-color="rgba(31, 251, 163.426, 1)" offset="100%"></stop>                        </linearGradient>                    </defs>                <path fill="url(#sw-gradient)" d="M16.3,-26.9C21.1,-22.4,24.8,-17.7,26.8,-12.5C28.8,-7.3,29.1,-1.5,29.4,5C29.8,11.6,30.1,19,26.7,23.6C23.4,28.1,16.3,29.9,9.5,31.6C2.6,33.3,-4,34.9,-10.2,33.6C-16.3,32.3,-22,28.1,-26.9,23C-31.8,17.9,-35.9,11.8,-34.6,6.3C-33.3,0.9,-26.5,-4.1,-23.3,-10.4C-20.1,-16.8,-20.5,-24.7,-17.2,-29.8C-13.9,-35,-7,-37.5,-0.6,-36.6C5.8,-35.6,11.6,-31.4,16.3,-26.9Z" width="100%" height="100%" transform="translate(50 50)" stroke-width="0" style="transition: all 0.3s ease 0s;"></path>              </svg>